<svg xmlns="http://www.w3.org/2000/svg" viewBox="0 0 64 64" fill="none" aria-hidden="true">
  <defs>
    <linearGradient id="gold" x1="8" y1="8" x2="56" y2="56" gradientUnits="userSpaceOnUse">
      <stop stop-color="#E8C98A"/>
      <stop offset="1" stop-color="#A67C3A"/>
    </linearGradient>
  </defs>
  <!-- Back layer — tissue clearing depth -->
  <path
    d="M12 22 L32 10 L52 22 L52 42 L32 54 L12 42 Z"
    stroke="url(#gold)"
    stroke-width="1.75"
    stroke-linejoin="round"
    opacity="0.35"
  />
  <!-- Middle layer -->
  <path
    d="M16 26 L32 16 L48 26 L48 40 L32 50 L16 40 Z"
    stroke="url(#gold)"
    stroke-width="1.75"
    stroke-linejoin="round"
    opacity="0.65"
  />
  <!-- Front layer — focal plane -->
  <path
    d="M20 30 L32 22 L44 30 L44 38 L32 46 L20 38 Z"
    stroke="url(#gold)"
    stroke-width="2"
    stroke-linejoin="round"
  />
  <!-- Cell grid dots -->
  <circle cx="28" cy="32" r="1.2" fill="#C9A26A" opacity="0.9"/>
  <circle cx="32" cy="34" r="1.2" fill="#C9A26A" opacity="0.9"/>
  <circle cx="36" cy="32" r="1.2" fill="#C9A26A" opacity="0.9"/>
  <circle cx="30" cy="36" r="1" fill="#C9A26A" opacity="0.55"/>
  <circle cx="34" cy="36" r="1" fill="#C9A26A" opacity="0.55"/>
  <!-- Light-sheet beam -->
  <path d="M6 34 H18" stroke="#C9A26A" stroke-width="1.5" stroke-linecap="round" opacity="0.5"/>
  <path d="M46 34 H58" stroke="#C9A26A" stroke-width="1.5" stroke-linecap="round" opacity="0.5"/>
</svg>
