<svg xmlns="http://www.w3.org/2000/svg" viewBox="0 0 280 64" fill="none" role="img" aria-label="Ertürk Lab">
  <defs>
    <linearGradient id="bio" x1="12" y1="48" x2="52" y2="16" gradientUnits="userSpaceOnUse">
      <stop stop-color="#34D399"/>
      <stop offset="0.45" stop-color="#2DD4BF"/>
      <stop offset="1" stop-color="#C026D3"/>
    </linearGradient>
    <linearGradient id="vessel" x1="32" y1="18" x2="32" y2="46" gradientUnits="userSpaceOnUse">
      <stop stop-color="#FDE047"/>
      <stop offset="0.55" stop-color="#F472B6"/>
      <stop offset="1" stop-color="#A855F7"/>
    </linearGradient>
    <radialGradient id="glow" cx="32" cy="32" r="28" gradientUnits="userSpaceOnUse">
      <stop stop-color="#34D399" stop-opacity="0.18"/>
      <stop offset="1" stop-color="#C026D3" stop-opacity="0"/>
    </radialGradient>
  </defs>

  <g transform="translate(0 0)">
    <g opacity="0.22" stroke="url(#bio)" stroke-width="1.1" fill="none">
      <path d="M18 34c0-9 6.5-15 14-15s14 6 14 15c0 2.5-1 5-3 7.5l-5 6.5c-1.2 1.5-3 2.5-6 2.5s-4.8-1-6-2.5l-5-6.5c-2-2.5-3-5-3-7.5Z" transform="translate(3.8 3.2) scale(0.92)"/>
      <path d="M18 34c0-9 6.5-15 14-15s14 6 14 15c0 2.5-1 5-3 7.5l-5 6.5c-1.2 1.5-3 2.5-6 2.5s-4.8-1-6-2.5l-5-6.5c-2-2.5-3-5-3-7.5Z" transform="translate(6.2 4.8) scale(0.92)"/>
    </g>
    <circle cx="35" cy="35" r="26" fill="url(#glow)"/>
    <path d="M11 35 H59" stroke="#34D399" stroke-width="0.75" stroke-linecap="round" opacity="0.35"/>
    <path
      d="M21 35c0-9 6.5-15 14-15 2.8 0 5.2 1 7 2.6 1.2-2.2 3.4-3.6 6-3.6 7.5 0 14 6 14 15 0 2.5-1 5-3 7.5l-5 6.5c-1.2 1.5-3 2.5-6 2.5s-4.8-1-6-2.5l-5-6.5c-2-2.5-3-5-3-7.5Z"
      stroke="url(#bio)"
      stroke-width="1.65"
      fill="rgba(52,211,153,0.06)"
      stroke-linejoin="round"
    />
    <circle cx="27" cy="22" r="2.1" stroke="url(#bio)" stroke-width="1.2" fill="rgba(192,38,211,0.12)"/>
    <circle cx="43" cy="22" r="2.1" stroke="url(#bio)" stroke-width="1.2" fill="rgba(52,211,153,0.12)"/>
    <path d="M49 37c5 1.5 9 0.5 11-2" stroke="url(#bio)" stroke-width="1.3" stroke-linecap="round" fill="none" opacity="0.85"/>
    <g stroke="url(#vessel)" stroke-width="1.15" stroke-linecap="round" fill="none">
      <path d="M35 23 V41"/>
      <path d="M35 27 L29 31 M35 27 L41 31"/>
      <path d="M35 31 L30 35 M35 31 L40 35"/>
      <path d="M35 35 L31 39 M35 35 L39 39"/>
    </g>
    <g>
      <circle cx="35" cy="23" r="1.55" fill="#FDE047"/>
      <circle cx="29" cy="31" r="1.35" fill="#34D399"/>
      <circle cx="41" cy="31" r="1.35" fill="#34D399"/>
      <circle cx="31" cy="39" r="1.25" fill="#F472B6"/>
      <circle cx="39" cy="39" r="1.25" fill="#F472B6"/>
      <circle cx="35" cy="35" r="1.45" fill="#C026D3"/>
      <path d="M35 24.6 L29 29.7 M35 24.6 L41 29.7 M29 32.3 L31 37.8 M41 32.3 L39 37.8" stroke="#A855F7" stroke-width="0.65" opacity="0.75"/>
    </g>
  </g>

  <text x="78" y="28" fill="currentColor" font-family="system-ui, -apple-system, 'Segoe UI', sans-serif" font-size="21" font-weight="650" letter-spacing="-0.02em">Ertürk Lab</text>
  <text x="78" y="44" fill="currentColor" opacity="0.55" font-family="system-ui, -apple-system, 'Segoe UI', sans-serif" font-size="10.5" font-weight="500" letter-spacing="0.08em">WHOLE-BODY IMAGING · AI · DISCO</text>
</svg>
