<svg xmlns="http://www.w3.org/2000/svg" viewBox="0 0 64 64" fill="none" aria-hidden="true">
  <defs>
    <linearGradient id="slice" x1="8" y1="52" x2="56" y2="12" gradientUnits="userSpaceOnUse">
      <stop stop-color="#34D399"/>
      <stop offset="1" stop-color="#C026D3"/>
    </linearGradient>
  </defs>
  <!-- DISCO: stacked cleared slices (3D histology) -->
  <g stroke="url(#slice)" stroke-width="1.2" fill="none" stroke-linejoin="round">
    <path d="M14 44 Q32 36 50 44" opacity="0.25"/>
    <path d="M12 38 Q32 28 52 38" opacity="0.4"/>
    <path d="M10 32 Q32 20 54 32" opacity="0.55"/>
    <path d="M12 26 Q32 14 52 26" opacity="0.7"/>
    <path d="M16 20 Q32 10 48 20" opacity="0.9"/>
  </g>
  <!-- Mouse profile emerging from stack -->
  <path
    d="M20 42c0-8 5-14 12-14 2.5 0 4.5 0.8 6 2 1-1.8 2.8-3 5-3 6.5 0 12 5.5 12 14 0 2-0.8 4-2.5 3.5-6l-4-5c-1-1.2-2.5-2-4.5-2s-3.5 0.8-4.5 2l-4 5c-1.5 3.5-2.3 6-3.5 6Z"
    stroke="url(#slice)"
    stroke-width="1.6"
    fill="rgba(52,211,153,0.08)"
  />
  <circle cx="25" cy="30" r="1.8" fill="#34D399"/>
  <circle cx="39" cy="30" r="1.8" fill="#C026D3"/>
</svg>
